{
    "asset" : {
        "generator" : "Khronos glTF Blender I/O v1.1.46",
        "version" : "2.0"
    },
    "scene" : 0,
    "scenes" : [
        {
            "name" : "Scene",
            "nodes" : [
                0,
                1,
                2,
                3,
                4,
                5,
                6
            ]
        }
    ],
    "nodes" : [
        {
            "mesh" : 0,
            "name" : "Cube",
            "rotation" : [
                0,
                0.6994954943656921,
                0,
                -0.714637041091919
            ],
            "scale" : [
                1,
                0.6349784731864929,
                1
            ],
            "translation" : [
                0.1828155368566513,
                2.9071054458618164,
                -0.5654191970825195
            ]
        },
        {
            "name" : "Light",
            "rotation" : [
                0.16907575726509094,
                0.7558803558349609,
                -0.27217137813568115,
                0.570947527885437
            ],
            "translation" : [
                0.15655875205993652,
                5.676933288574219,
                3.8713393211364746
            ]
        },
        {
            "name" : "Camera",
            "rotation" : [
                0.483536034822464,
                0.33687159419059753,
                -0.20870360732078552,
                0.7804827094078064
            ],
            "translation" : [
                7.358891487121582,
                4.958309173583984,
                6.925790786743164
            ]
        },
        {
            "mesh" : 1,
            "name" : "Cone",
            "rotation" : [
                0,
                0.6994954943656921,
                0,
                -0.714637041091919
            ],
            "scale" : [
                1.8307422399520874,
                1.661407232284546,
                1.423146367073059
            ],
            "translation" : [
                0.1828155368566513,
                0.4492884874343872,
                -0.5654191970825195
            ]
        },
        {
            "mesh" : 2,
            "name" : "Plane",
            "rotation" : [
                -0.3437783420085907,
                0.616559624671936,
                0.366240531206131,
                -0.6062495708465576
            ],
            "scale" : [
                0.9897729754447937,
                0.9971666932106018,
                0.2367892861366272
            ],
            "translation" : [
                0.19998902082443237,
                0.809587836265564,
                0.2364484667778015
            ]
        },
        {
            "mesh" : 3,
            "name" : "Cylinder",
            "rotation" : [
                0,
                0.6994954943656921,
                0,
                -0.714637041091919
            ],
            "scale" : [
                0.3091479241847992,
                0.35602661967277527,
                0.25181859731674194
            ],
            "translation" : [
                0.1845220923423767,
                1.9974603652954102,
                -0.4857359826564789
            ]
        },
        {
            "mesh" : 4,
            "name" : "Plane.001",
            "rotation" : [
                0.4946179986000061,
                0.4946179687976837,
                -0.50532466173172,
                -0.5053247213363647
            ],
            "scale" : [
                0.5442758202552795,
                0.9999972581863403,
                1
            ],
            "translation" : [
                1.1510425806045532,
                2.9077258110046387,
                0.43350985646247864
            ]
        }
    ],
    "materials" : [
        {
            "doubleSided" : true,
            "emissiveFactor" : [
                0,
                0,
                0
            ],
            "name" : "Material",
            "pbrMetallicRoughness" : {
                "baseColorFactor" : [
                    0.4677838385105133,
                    0.4564110040664673,
                    0.479320228099823,
                    1
                ],
                "metallicFactor" : 0,
                "roughnessFactor" : 0.4000000059604645
            }
        },
        {
            "doubleSided" : true,
            "name" : "body",
            "pbrMetallicRoughness" : {}
        },
        {
            "doubleSided" : true,
            "emissiveFactor" : [
                0,
                0,
                0
            ],
            "name" : "hada",
            "pbrMetallicRoughness" : {
                "baseColorFactor" : [
                    0.9215819835662842,
                    0.5711249709129333,
                    0.43415382504463196,
                    1
                ],
                "metallicFactor" : 0,
                "roughnessFactor" : 0.5
            }
        },
        {
            "doubleSided" : true,
            "emissiveFactor" : [
                0,
                0,
                0
            ],
            "name" : "Material.002",
            "pbrMetallicRoughness" : {
                "baseColorTexture" : {
                    "index" : 0,
                    "texCoord" : 0
                },
                "metallicFactor" : 0,
                "roughnessFactor" : 0.5
            }
        }
    ],
    "meshes" : [
        {
            "name" : "Cube",
            "primitives" : [
                {
                    "attributes" : {
                        "POSITION" : 0,
                        "NORMAL" : 1,
                        "TEXCOORD_0" : 2
                    },
                    "indices" : 3,
                    "material" : 0
                }
            ]
        },
        {
            "name" : "Cone",
            "primitives" : [
                {
                    "attributes" : {
                        "POSITION" : 4,
                        "NORMAL" : 5,
                        "TEXCOORD_0" : 6
                    },
                    "indices" : 7,
                    "material" : 1
                }
            ]
        },
        {
            "name" : "Plane",
            "primitives" : [
                {
                    "attributes" : {
                        "POSITION" : 8,
                        "NORMAL" : 9,
                        "TEXCOORD_0" : 10
                    },
                    "indices" : 11,
                    "material" : 2
                }
            ]
        },
        {
            "name" : "Cylinder",
            "primitives" : [
                {
                    "attributes" : {
                        "POSITION" : 12,
                        "NORMAL" : 13,
                        "TEXCOORD_0" : 14
                    },
                    "indices" : 15,
                    "material" : 2
                }
            ]
        },
        {
            "name" : "Plane.001",
            "primitives" : [
                {
                    "attributes" : {
                        "POSITION" : 16,
                        "NORMAL" : 17,
                        "TEXCOORD_0" : 18,
                        "TEXCOORD_1" : 19
                    },
                    "indices" : 20,
                    "material" : 3
                }
            ]
        }
    ],
    "textures" : [
        {
            "source" : 0
        }
    ],
    "images" : [
        {
            "mimeType" : "image/png",
            "name" : "\u30b9\u30af\u30ea\u30fc\u30f3\u30b7\u30e7\u30c3\u30c8 2020-04-24 1.15.32",
            "uri" : "%E3%82%B9%E3%82%AF%E3%83%AA%E3%83%BC%E3%83%B3%E3%82%B7%E3%83%A7%E3%83%83%E3%83%88%202020-04-24%201_15_32.png"
        }
    ],
    "accessors" : [
        {
            "bufferView" : 0,
            "componentType" : 5126,
            "count" : 24,
            "max" : [
                1,
                1,
                1
            ],
            "min" : [
                -1,
                -1,
                -1
            ],
            "type" : "VEC3"
        },
        {
            "bufferView" : 1,
            "componentType" : 5126,
            "count" : 24,
            "type" : "VEC3"
        },
        {
            "bufferView" : 2,
            "componentType" : 5126,
            "count" : 24,
            "type" : "VEC2"
        },
        {
            "bufferView" : 3,
            "componentType" : 5123,
            "count" : 36,
            "type" : "SCALAR"
        },
        {
            "bufferView" : 4,
            "componentType" : 5126,
            "count" : 128,
            "max" : [
                1,
                1,
                1
            ],
            "min" : [
                -1,
                -1,
                -1
            ],
            "type" : "VEC3"
        },
        {
            "bufferView" : 5,
            "componentType" : 5126,
            "count" : 128,
            "type" : "VEC3"
        },
        {
            "bufferView" : 6,
            "componentType" : 5126,
            "count" : 128,
            "type" : "VEC2"
        },
        {
            "bufferView" : 7,
            "componentType" : 5123,
            "count" : 186,
            "type" : "SCALAR"
        },
        {
            "bufferView" : 8,
            "componentType" : 5126,
            "count" : 3,
            "max" : [
                0.6628523468971252,
                0,
                1
            ],
            "min" : [
                -1,
                -0.09285688400268555,
                -1
            ],
            "type" : "VEC3"
        },
        {
            "bufferView" : 9,
            "componentType" : 5126,
            "count" : 3,
            "type" : "VEC3"
        },
        {
            "bufferView" : 10,
            "componentType" : 5126,
            "count" : 3,
            "type" : "VEC2"
        },
        {
            "bufferView" : 11,
            "componentType" : 5123,
            "count" : 3,
            "type" : "SCALAR"
        },
        {
            "bufferView" : 12,
            "componentType" : 5126,
            "count" : 192,
            "max" : [
                1,
                1,
                1
            ],
            "min" : [
                -1,
                -1,
                -1
            ],
            "type" : "VEC3"
        },
        {
            "bufferView" : 13,
            "componentType" : 5126,
            "count" : 192,
            "type" : "VEC3"
        },
        {
            "bufferView" : 14,
            "componentType" : 5126,
            "count" : 192,
            "type" : "VEC2"
        },
        {
            "bufferView" : 15,
            "componentType" : 5123,
            "count" : 372,
            "type" : "SCALAR"
        },
        {
            "bufferView" : 16,
            "componentType" : 5126,
            "count" : 5,
            "max" : [
                1.1711764335632324,
                0.0033382484689354897,
                1.9487524032592773
            ],
            "min" : [
                -1.1761077642440796,
                -0.0033382494002580643,
                -0.054237186908721924
            ],
            "type" : "VEC3"
        },
        {
            "bufferView" : 17,
            "componentType" : 5126,
            "count" : 5,
            "type" : "VEC3"
        },
        {
            "bufferView" : 18,
            "componentType" : 5126,
            "count" : 5,
            "type" : "VEC2"
        },
        {
            "bufferView" : 19,
            "componentType" : 5126,
            "count" : 5,
            "type" : "VEC2"
        },
        {
            "bufferView" : 20,
            "componentType" : 5123,
            "count" : 9,
            "type" : "SCALAR"
        }
    ],
    "bufferViews" : [
        {
            "buffer" : 0,
            "byteLength" : 288,
            "byteOffset" : 0
        },
        {
            "buffer" : 0,
            "byteLength" : 288,
            "byteOffset" : 288
        },
        {
            "buffer" : 0,
            "byteLength" : 192,
            "byteOffset" : 576
        },
        {
            "buffer" : 0,
            "byteLength" : 72,
            "byteOffset" : 768
        },
        {
            "buffer" : 0,
            "byteLength" : 1536,
            "byteOffset" : 840
        },
        {
            "buffer" : 0,
            "byteLength" : 1536,
            "byteOffset" : 2376
        },
        {
            "buffer" : 0,
            "byteLength" : 1024,
            "byteOffset" : 3912
        },
        {
            "buffer" : 0,
            "byteLength" : 372,
            "byteOffset" : 4936
        },
        {
            "buffer" : 0,
            "byteLength" : 36,
            "byteOffset" : 5308
        },
        {
            "buffer" : 0,
            "byteLength" : 36,
            "byteOffset" : 5344
        },
        {
            "buffer" : 0,
            "byteLength" : 24,
            "byteOffset" : 5380
        },
        {
            "buffer" : 0,
            "byteLength" : 6,
            "byteOffset" : 5404
        },
        {
            "buffer" : 0,
            "byteLength" : 2304,
            "byteOffset" : 5412
        },
        {
            "buffer" : 0,
            "byteLength" : 2304,
            "byteOffset" : 7716
        },
        {
            "buffer" : 0,
            "byteLength" : 1536,
            "byteOffset" : 10020
        },
        {
            "buffer" : 0,
            "byteLength" : 744,
            "byteOffset" : 11556
        },
        {
            "buffer" : 0,
            "byteLength" : 60,
            "byteOffset" : 12300
        },
        {
            "buffer" : 0,
            "byteLength" : 60,
            "byteOffset" : 12360
        },
        {
            "buffer" : 0,
            "byteLength" : 40,
            "byteOffset" : 12420
        },
        {
            "buffer" : 0,
            "byteLength" : 40,
            "byteOffset" : 12460
        },
        {
            "buffer" : 0,
            "byteLength" : 18,
            "byteOffset" : 12500
        }
    ],
    "buffers" : [
        {
            "byteLength" : 12520,
            "uri" : "elecineman_center.bin"
        }
    ]
}
